
<svg viewBox="0 0 524 256" fill="none" xmlns="http://www.w3.org/2000/svg">
<path d="M294.169 17.0524C316.841 2.59652 344.324 -2.96079 371.058 1.50494C391.32 5.88452 410.155 15.0502 425.893 28.1888C444.521 44.2154 457.216 65.7331 462.028 89.4387C433.269 117.786 404.063 145.699 375.23 173.901C347.365 146.808 319.451 119.738 291.487 92.6929C298.043 86.4015 304.525 79.8933 311.156 73.6743C315.065 75.3814 319.414 75.9043 323.635 75.1748C327.855 74.4452 331.751 72.4971 334.812 69.5849C337.874 66.6728 339.96 62.9319 340.797 58.8512C341.634 54.7705 341.183 50.5397 339.504 46.7115C337.824 42.8833 334.994 39.6357 331.384 37.393C327.773 35.1504 323.549 34.0169 319.264 34.1408C314.979 34.2646 310.832 35.64 307.366 38.0872C303.899 40.5345 301.273 43.9398 299.831 47.8582C298.838 50.6223 298.432 53.5529 298.637 56.4734C298.842 59.3939 299.654 62.244 301.023 64.852C294.69 71.1433 288.209 77.2177 281.876 83.509L254.085 56.3189C263.912 40.2267 277.681 26.7386 294.169 17.0524Z" fill="#153A46"/>
<path d="M442.656 126.97C450.703 119.738 458.302 111.567 466.423 104.191C487.164 111.711 504.623 125.901 515.894 144.397C524.533 161.219 526.341 180.578 520.961 198.633C516.699 214.95 506.48 229.211 492.202 238.767C481.614 245.711 469.752 250.621 457.259 253.23C433.045 229.8 408.98 206.298 384.766 182.941C400.859 167.321 416.952 151.846 432.896 136.154C437.739 140.42 442.209 145.048 446.829 149.459C445.593 152.072 444.922 154.904 444.857 157.778C444.792 160.653 445.335 163.51 446.452 166.173C447.569 168.836 449.237 171.249 451.352 173.262C453.467 175.275 455.984 176.846 458.749 177.879C461.505 178.891 464.447 179.337 467.39 179.189C470.333 179.042 473.212 178.303 475.845 177.021C478.479 175.738 480.81 173.939 482.691 171.738C484.572 169.537 485.962 166.98 486.774 164.231C487.585 161.482 487.8 158.599 487.406 155.765C487.011 152.931 486.015 150.207 484.481 147.765C482.946 145.324 480.907 143.218 478.491 141.58C476.076 139.942 473.337 138.809 470.447 138.251C465.625 137.386 460.646 138.019 456.216 140.059C452.044 135.864 446.978 131.598 442.656 126.97Z" fill="#153A46"/>
<path d="M157.304 86.5462C160.535 77.7263 166.195 69.9348 173.669 64.019C181.144 58.1032 190.146 54.2895 199.697 52.9925C220.484 50.7508 240.451 61.6702 254.458 75.8437C272.339 92.7652 289.997 109.976 307.803 126.897C284.508 149.893 261.039 172.6 237.396 195.017C232.33 189.738 226.668 184.966 221.75 179.47C223.84 175.88 224.772 171.765 224.427 167.656C224.082 163.547 222.475 159.633 219.814 156.42C217.153 153.206 213.561 150.841 209.5 149.631C205.44 148.42 201.099 148.418 197.038 149.627C192.977 150.836 189.383 153.199 186.72 156.411C184.058 159.623 182.449 163.536 182.101 167.645C181.754 171.754 182.684 175.869 184.771 179.46C186.859 183.05 190.008 185.951 193.811 187.786C196.539 189.088 199.512 189.837 202.548 189.986C205.584 190.135 208.62 189.682 211.469 188.654C216.908 194.149 222.794 199.211 227.86 204.924C211.022 220.978 194.407 237.249 177.793 253.519C176.452 254.532 175.185 256.412 173.248 255.689C163.002 254.659 153.071 251.653 144.039 246.847C135.006 242.042 127.053 235.533 120.648 227.703C110.719 213.468 106.996 195.998 110.292 179.108C112.222 166.624 117.412 154.828 125.367 144.841C133.322 134.854 143.778 127.009 155.739 122.052C152.96 110.296 153.501 98.0294 157.304 86.5462Z" fill="#153A46"/>
<path d="M194.258 255.906L317.414 136.371L365.693 183.158L356.306 192.197C352.094 190.23 347.341 189.632 342.752 190.492C338.163 191.352 333.981 193.623 330.825 196.97C327.64 200.934 326.058 205.893 326.376 210.911C326.695 215.929 328.893 220.661 332.555 224.216C336.218 227.771 341.093 229.904 346.264 230.213C351.434 230.522 356.542 228.987 360.627 225.895C364.038 222.857 366.362 218.841 367.26 214.432C368.158 210.023 367.583 205.451 365.619 201.381L375.006 192.269C396.911 213.385 418.716 234.549 440.421 255.761C358.392 256.195 276.288 255.906 194.258 255.906Z" fill="#153A46"/>
<path d="M125.212 79.2446C125.212 73.3146 130.195 68.5073 136.342 68.5073H219.817C225.964 68.5073 230.947 73.3146 230.947 79.2446C230.947 85.1746 225.964 89.9819 219.817 89.9819H136.342C130.195 89.9819 125.212 85.1746 125.212 79.2446Z" fill="#153A46"/>
<path d="M244.86 12.1367C244.86 6.20665 249.843 1.39941 255.99 1.39941H356.16C362.307 1.39941 367.29 6.20665 367.29 12.1367C367.29 18.0667 362.307 22.874 356.16 22.874H255.99C249.843 22.874 244.86 18.0667 244.86 12.1367Z" fill="#153A46"/>
<path d="M77.9099 79.2446C77.9099 73.3146 82.893 68.5073 89.0399 68.5073H100.17C106.317 68.5073 111.3 73.3146 111.3 79.2446C111.3 85.1746 106.317 89.9819 100.17 89.9819H89.0399C82.893 89.9819 77.9099 85.1746 77.9099 79.2446Z" fill="#153A46"/>
<path d="M47.3025 210.776C47.3025 204.846 52.2855 200.039 58.4325 200.039H141.907C148.054 200.039 153.037 204.846 153.037 210.776C153.037 216.706 148.054 221.513 141.907 221.513H58.4325C52.2855 221.513 47.3025 216.706 47.3025 210.776Z" fill="#153A46"/>
<path d="M47.3025 154.406C47.3025 148.475 52.2855 143.668 58.4325 143.668H172.515C178.662 143.668 183.645 148.475 183.645 154.406C183.645 160.336 178.662 165.143 172.515 165.143H58.4325C52.2855 165.143 47.3025 160.336 47.3025 154.406Z" fill="#153A46"/>
<path d="M0 210.776C0 204.846 4.98307 200.039 11.13 200.039H22.26C28.4069 200.039 33.39 204.846 33.39 210.776C33.39 216.706 28.4069 221.513 22.26 221.513H11.13C4.98307 221.513 0 216.706 0 210.776Z" fill="#153A46"/>
</svg>
