<svg viewBox="0 0 172 86" fill="none" xmlns="http://www.w3.org/2000/svg">
<path d="M96.486 5.72416C103.922 0.871598 112.937 -0.993877 121.705 0.505177C128.351 1.97531 134.529 5.05203 139.691 9.46241C145.801 14.8422 149.965 22.0653 151.543 30.0228C142.11 39.5383 132.531 48.9082 123.074 58.3752C113.934 49.2804 104.778 40.1937 95.6062 31.1151C97.7567 29.0033 99.8827 26.8186 102.058 24.731C103.34 25.304 104.766 25.4796 106.151 25.2347C107.535 24.9898 108.813 24.3358 109.817 23.3583C110.821 22.3807 111.505 21.125 111.78 19.7552C112.054 18.3854 111.906 16.9652 111.356 15.6801C110.805 14.395 109.877 13.3049 108.692 12.5521C107.508 11.7993 106.123 11.4188 104.717 11.4604C103.312 11.5019 101.952 11.9636 100.814 12.7851C99.6773 13.6066 98.8161 14.7497 98.3432 16.065C98.0176 16.9929 97.8843 17.9766 97.9515 18.957C98.0187 19.9373 98.285 20.894 98.7342 21.7695C96.657 23.8814 94.531 25.9204 92.4539 28.0323L83.3388 18.9051C86.5619 13.5033 91.0779 8.9756 96.486 5.72416Z" fill="white"/>
<path d="M145.189 42.6212C147.828 40.1937 150.321 37.4507 152.985 34.9747C159.787 37.4991 165.514 42.2624 169.211 48.4713C172.044 54.1179 172.637 60.6162 170.873 66.677C169.475 72.1544 166.123 76.9416 161.44 80.1493C157.967 82.4802 154.076 84.1283 149.979 85.0042C142.037 77.1393 134.144 69.2501 126.202 61.4095C131.48 56.1662 136.758 50.9715 141.988 45.704C143.576 47.1362 145.043 48.6897 146.558 50.1705C146.152 51.0477 145.932 51.9981 145.911 52.963C145.89 53.928 146.068 54.887 146.434 55.7809C146.801 56.6749 147.348 57.4847 148.041 58.1605C148.735 58.8364 149.561 59.3638 150.468 59.7103C151.372 60.05 152.337 60.1998 153.302 60.1502C154.267 60.1006 155.211 59.8527 156.075 59.4222C156.939 58.9917 157.703 58.3879 158.32 57.6489C158.937 56.91 159.393 56.052 159.659 55.1291C159.926 54.2062 159.996 53.2385 159.867 52.2871C159.737 51.3358 159.411 50.4214 158.907 49.6018C158.404 48.7823 157.735 48.0753 156.943 47.5255C156.151 46.9758 155.252 46.5952 154.304 46.408C152.723 46.1178 151.09 46.3302 149.637 47.0148C148.268 45.6069 146.607 44.1747 145.189 42.6212Z" fill="white"/>
<path d="M51.595 29.0518C52.6546 26.0911 54.5112 23.4757 56.9627 21.4899C59.4142 19.5041 62.3669 18.2239 65.4997 17.7885C72.3177 17.036 78.8668 20.7014 83.461 25.4592C89.3259 31.1394 95.1175 36.9167 100.958 42.5969C93.3173 50.3161 85.6196 57.9383 77.8649 65.4633C76.2032 63.6913 74.3459 62.0892 72.7331 60.2443C73.4185 59.0395 73.7243 57.6581 73.6111 56.2788C73.4979 54.8995 72.9708 53.5856 72.098 52.5069C71.2252 51.4283 70.0468 50.6344 68.7151 50.2279C67.3834 49.8215 65.9595 49.8211 64.6276 50.2268C63.2956 50.6326 62.1168 51.4258 61.2434 52.504C60.37 53.5822 59.8423 54.8958 59.7283 56.2751C59.6143 57.6543 59.9194 59.0358 60.6041 60.2411C61.2888 61.4463 62.3216 62.4198 63.5692 63.0359C64.4639 63.4731 65.4389 63.7245 66.4347 63.7745C67.4306 63.8246 68.4262 63.6724 69.3608 63.3272C71.1447 65.172 73.0752 66.8712 74.7369 68.7889C69.2141 74.1778 63.7647 79.6395 58.3152 85.1013C57.8753 85.4411 57.4599 86.0722 56.8245 85.8295C53.4639 85.4839 50.2066 84.4749 47.244 82.8617C44.2813 81.2485 41.6729 79.0636 39.5719 76.4353C36.3153 71.6569 35.0942 65.7926 36.1751 60.123C36.8083 55.9324 38.5105 51.9725 41.1198 48.6201C43.729 45.2677 47.1585 42.6343 51.0818 40.9705C50.1703 37.0241 50.3475 32.9065 51.595 29.0518Z" fill="white"/>
<path d="M63.7158 85.9023L104.11 45.7768L119.946 61.4823L116.867 64.5166C115.485 63.8565 113.926 63.6558 112.421 63.9443C110.916 64.2329 109.544 64.9953 108.509 66.1187C107.464 67.4496 106.945 69.114 107.05 70.7985C107.154 72.4829 107.875 74.0714 109.077 75.2647C110.278 76.4581 111.877 77.1741 113.573 77.2779C115.269 77.3817 116.944 76.8662 118.284 75.8285C119.403 74.8084 120.165 73.4604 120.46 71.9804C120.754 70.5004 120.565 68.9657 119.921 67.5995L123 64.5409C130.185 71.629 137.337 78.7333 144.456 85.8538C117.551 85.9994 90.6211 85.9023 63.7158 85.9023Z" fill="white"/>
<path d="M41.0691 26.6008C41.0691 24.6102 42.7035 22.9965 44.7197 22.9965H72.099C74.1152 22.9965 75.7496 24.6102 75.7496 26.6008C75.7496 28.5914 74.1152 30.2051 72.099 30.2051H44.7197C42.7035 30.2051 41.0691 28.5914 41.0691 26.6008Z" fill="white"/>
<path d="M80.3129 4.07401C80.3129 2.08342 81.9473 0.469727 83.9634 0.469727H116.819C118.835 0.469727 120.469 2.08342 120.469 4.07401C120.469 6.0646 118.835 7.6783 116.819 7.6783H83.9634C81.9473 7.6783 80.3129 6.0646 80.3129 4.07401Z" fill="white"/>
<path d="M25.5541 26.6008C25.5541 24.6102 27.1885 22.9965 29.2047 22.9965H32.8553C34.8714 22.9965 36.5058 24.6102 36.5058 26.6008C36.5058 28.5914 34.8714 30.2051 32.8553 30.2051H29.2047C27.1885 30.2051 25.5541 28.5914 25.5541 26.6008Z" fill="white"/>
<path d="M15.515 70.7533C15.515 68.7627 17.1494 67.149 19.1656 67.149H46.545C48.5611 67.149 50.1955 68.7627 50.1955 70.7533C50.1955 72.7439 48.5611 74.3576 46.545 74.3576H19.1656C17.1494 74.3576 15.515 72.7439 15.515 70.7533Z" fill="white"/>
<path d="M15.515 51.8308C15.515 49.8402 17.1494 48.2265 19.1656 48.2265H56.5841C58.6002 48.2265 60.2346 49.8402 60.2346 51.8308C60.2346 53.8214 58.6002 55.4351 56.5841 55.4351H19.1656C17.1494 55.4351 15.515 53.8214 15.515 51.8308Z" fill="white"/>
<path d="M0 70.7533C0 68.7627 1.63442 67.149 3.65058 67.149H7.30117C9.31733 67.149 10.9518 68.7627 10.9518 70.7533C10.9518 72.7439 9.31733 74.3576 7.30117 74.3576H3.65058C1.63442 74.3576 0 72.7439 0 70.7533Z" fill="white"/>
</svg>
