
<svg viewBox="0 0 779 360" fill="none" xmlns="http://www.w3.org/2000/svg">
    <path d="M437.324 23.9756C471.029 3.65068 511.886 -4.16285 551.63 2.11593C581.752 8.27359 609.754 21.1604 633.15 39.6332C660.844 62.1665 679.716 92.4202 686.869 125.75C644.115 165.606 600.697 204.852 557.832 244.504C516.407 206.411 474.909 168.351 433.336 130.325C443.083 121.48 452.72 112.329 462.577 103.585C468.389 105.986 474.855 106.721 481.129 105.695C487.403 104.669 493.194 101.93 497.746 97.8359C502.298 93.7414 505.398 88.4818 506.643 82.7444C507.887 77.007 507.217 71.0585 504.72 65.676C502.224 60.2936 498.017 55.7275 492.649 52.5743C487.281 49.4211 481.002 47.8275 474.631 48.0017C468.261 48.1758 462.096 50.1096 456.942 53.5504C451.788 56.9912 447.885 61.779 445.742 67.2883C444.266 71.1746 443.662 75.2949 443.966 79.4012C444.271 83.5074 445.478 87.5146 447.514 91.1814C438.099 100.027 428.463 108.567 419.048 117.413L377.734 79.184C392.343 56.5584 412.812 37.5942 437.324 23.9756Z" fill="white"/>
    <path d="M658.071 178.518C670.034 168.351 681.331 156.862 693.404 146.491C724.238 157.065 750.194 177.016 766.95 203.022C779.792 226.673 782.481 253.891 774.482 279.276C768.146 302.218 752.954 322.269 731.728 335.705C715.987 345.468 698.353 352.371 679.781 356.039C643.783 323.097 608.007 290.054 572.01 257.213C595.934 235.252 619.859 213.494 643.562 191.431C650.761 197.43 657.407 203.937 664.274 210.139C662.437 213.813 661.439 217.793 661.343 221.835C661.247 225.877 662.054 229.894 663.715 233.638C665.375 237.382 667.854 240.774 670.998 243.605C674.143 246.436 677.885 248.645 681.996 250.096C686.093 251.519 690.467 252.146 694.841 251.939C699.216 251.731 703.496 250.693 707.412 248.889C711.327 247.086 714.792 244.557 717.588 241.462C720.385 238.367 722.452 234.773 723.658 230.908C724.864 227.042 725.184 222.989 724.598 219.004C724.011 215.02 722.53 211.19 720.249 207.757C717.968 204.324 714.936 201.363 711.345 199.06C707.754 196.758 703.682 195.164 699.385 194.379C692.218 193.164 684.815 194.054 678.23 196.921C672.027 191.024 664.496 185.025 658.071 178.518Z" fill="white"/>
    <path d="M233.855 121.683C238.658 109.283 247.073 98.3278 258.184 90.0102C269.296 81.6926 282.679 76.3306 296.878 74.5071C327.781 71.3552 357.465 86.7078 378.288 106.636C404.871 130.427 431.121 154.625 457.593 178.417C422.962 210.749 388.072 242.674 352.923 274.193C345.392 266.771 336.974 260.06 329.664 252.333C332.77 247.286 334.156 241.501 333.643 235.723C333.13 229.946 330.741 224.443 326.785 219.925C322.829 215.407 317.488 212.082 311.452 210.379C305.416 208.677 298.962 208.675 292.925 210.375C286.888 212.074 281.545 215.397 277.586 219.913C273.628 224.429 271.236 229.931 270.719 235.708C270.203 241.485 271.585 247.271 274.689 252.319C277.792 257.367 282.474 261.445 288.128 264.025C292.183 265.857 296.603 266.909 301.116 267.119C305.63 267.329 310.143 266.691 314.378 265.245C322.464 272.973 331.214 280.09 338.746 288.122C313.714 310.693 289.014 333.57 264.314 356.446C262.321 357.869 260.438 360.513 257.558 359.496C242.326 358.049 227.562 353.822 214.134 347.065C200.705 340.309 188.883 331.157 179.36 320.149C164.6 300.134 159.065 275.572 163.964 251.825C166.834 234.273 174.55 217.687 186.376 203.645C198.202 189.603 213.746 178.573 231.529 171.605C227.397 155.075 228.201 137.829 233.855 121.683Z" fill="white"/>
    <path d="M288.793 359.801L471.881 191.736L543.655 257.518L529.699 270.227C523.437 267.462 516.372 266.622 509.549 267.83C502.727 269.039 496.509 272.232 491.818 276.938C487.083 282.512 484.731 289.483 485.205 296.539C485.678 303.594 488.945 310.247 494.391 315.246C499.836 320.244 507.084 323.243 514.77 323.678C522.456 324.113 530.05 321.954 536.123 317.607C541.195 313.335 544.649 307.688 545.984 301.489C547.319 295.29 546.464 288.862 543.544 283.14L557.5 270.329C590.064 300.018 622.48 329.774 654.748 359.598C532.8 360.208 410.741 359.801 288.793 359.801Z" fill="white"/>
    <path d="M186.146 111.418C186.146 103.08 193.554 96.321 202.692 96.321H326.789C335.928 96.321 343.336 103.08 343.336 111.418C343.336 119.755 335.928 126.514 326.789 126.514H202.692C193.554 126.514 186.146 119.755 186.146 111.418Z" fill="white"/>
    <path d="M364.019 17.0643C364.019 8.72672 371.427 1.96777 380.565 1.96777H529.482C538.62 1.96777 546.028 8.72672 546.028 17.0643C546.028 25.4019 538.62 32.1608 529.482 32.1608H380.565C371.427 32.1608 364.019 25.4019 364.019 17.0643Z" fill="white"/>
    <path d="M115.824 111.418C115.824 103.08 123.232 96.321 132.37 96.321H148.917C158.055 96.321 165.463 103.08 165.463 111.418C165.463 119.755 158.055 126.514 148.917 126.514H132.37C123.232 126.514 115.824 119.755 115.824 111.418Z" fill="white"/>
    <path d="M70.3218 296.35C70.3218 288.012 77.7298 281.253 86.8681 281.253H210.965C220.104 281.253 227.512 288.012 227.512 296.35C227.512 304.687 220.104 311.446 210.965 311.446H86.8681C77.7298 311.446 70.3218 304.687 70.3218 296.35Z" fill="white"/>
    <path d="M70.3218 217.093C70.3218 208.756 77.7298 201.997 86.8681 201.997H256.468C265.606 201.997 273.014 208.756 273.014 217.093C273.014 225.431 265.606 232.19 256.468 232.19H86.8681C77.7298 232.19 70.3218 225.431 70.3218 217.093Z" fill="white"/>
    <path d="M0 296.35C0 288.012 7.40803 281.253 16.5463 281.253H33.0926C42.2309 281.253 49.6389 288.012 49.6389 296.35C49.6389 304.687 42.2309 311.446 33.0926 311.446H16.5463C7.40803 311.446 0 304.687 0 296.35Z" fill="white"/>
</svg>
